<?xml version="1.0" encoding="utf-8"?>
<!-- Generator: Adobe Illustrator 16.0.0, SVG Export Plug-In . SVG Version: 6.00 Build 0)  -->
<!DOCTYPE svg PUBLIC "-//W3C//DTD SVG 1.1//EN" "//www.w3.org/Graphics/SVG/1.1/DTD/svg11.dtd">
<svg version="1.1" id="图层_1" xmlns="//www.w3.org/2000/svg" xmlns:xlink="//www.w3.org/1999/xlink" x="0px" y="0px"
	 width="1023.872px" height="512px" viewBox="0 0 1023.872 512" enable-background="new 0 0 1023.872 512" xml:space="preserve">
<circle fill-rule="evenodd" clip-rule="evenodd" fill="#FFFFFF" cx="256" cy="256" r="256"/>
<circle fill-rule="evenodd" clip-rule="evenodd" fill="#FFFFFF" cx="768" cy="256" r="256"/>
<g>
	<path fill-rule="evenodd" clip-rule="evenodd" fill="#BF1238" d="M339.971,385.778c-13.805,0-26.256,0.149-38.696-0.155
		c-1.944-0.047-4.112-1.861-5.715-3.355c-39.127-36.444-78.191-72.956-117.267-109.456c-5.468-5.108-10.933-10.222-18.076-16.899
		c1.93-1.037,3.827-1.609,5.127-2.821c43.387-40.426,86.74-80.887,130.001-121.447c2.772-2.599,5.526-3.639,9.277-3.569
		c11.304,0.21,22.613,0.076,35.305,0.076c-46.351,43.333-91.847,85.868-137.769,128.8
		C248.001,299.806,293.459,342.3,339.971,385.778z"/>
	<path fill-rule="evenodd" clip-rule="evenodd" fill="#BF1238" d="M685.886,385.783c46.469-43.434,91.839-85.841,137.826-128.824
		c-45.737-42.759-91.265-85.323-137.778-128.807c10.757,0,20.336,0.475,29.843-0.149c7.73-0.508,13.228,2.005,18.868,7.336
		c41.402,39.128,83.135,77.906,124.776,116.781c1.565,1.462,3.257,2.789,6.201,5.294c-2.269,1.502-3.963,2.313-5.273,3.533
		c-43.369,40.442-86.721,80.902-129.991,121.449c-2.621,2.456-5.195,3.541-8.813,3.47
		C710.113,385.642,698.674,385.783,685.886,385.783z"/>
</g>
</svg>
